<svg width="211" height="52" viewBox="0 0 211 52" fill="none" xmlns="http://www.w3.org/2000/svg">
<path d="M0.118248 33.144C0.118248 29.56 0.822248 26.3813 2.23025 23.608C3.68092 20.8347 5.64358 18.7013 8.11825 17.208C10.5929 15.7147 13.3449 14.968 16.3742 14.968C18.6782 14.968 20.8756 15.48 22.9662 16.504C25.0569 17.4853 26.7209 18.808 27.9583 20.472V3.64H37.0462V51H27.9583V45.752C26.8489 47.5013 25.2916 48.9093 23.2862 49.976C21.2809 51.0427 18.9556 51.576 16.3102 51.576C13.3236 51.576 10.5929 50.808 8.11825 49.272C5.64358 47.736 3.68092 45.5813 2.23025 42.808C0.822248 39.992 0.118248 36.7707 0.118248 33.144ZM28.0222 33.272C28.0222 31.096 27.5956 29.24 26.7423 27.704C25.8889 26.1253 24.7369 24.9307 23.2862 24.12C21.8356 23.2667 20.2783 22.84 18.6143 22.84C16.9502 22.84 15.4142 23.2453 14.0062 24.056C12.5982 24.8667 11.4462 26.0613 10.5502 27.64C9.69692 29.176 9.27025 31.0107 9.27025 33.144C9.27025 35.2773 9.69692 37.1547 10.5502 38.776C11.4462 40.3547 12.5982 41.5707 14.0062 42.424C15.4569 43.2773 16.9929 43.704 18.6143 43.704C20.2783 43.704 21.8356 43.2987 23.2862 42.488C24.7369 41.6347 25.8889 40.44 26.7423 38.904C27.5956 37.3253 28.0222 35.448 28.0222 33.272ZM58.3412 51.576C54.9279 51.576 51.8559 50.8293 49.1252 49.336C46.3946 47.8 44.2399 45.6453 42.6612 42.872C41.1252 40.0987 40.3572 36.8987 40.3572 33.272C40.3572 29.6453 41.1466 26.4453 42.7252 23.672C44.3466 20.8987 46.5439 18.7653 49.3172 17.272C52.0906 15.736 55.1839 14.968 58.5972 14.968C62.0106 14.968 65.1039 15.736 67.8772 17.272C70.6506 18.7653 72.8266 20.8987 74.4053 23.672C76.0266 26.4453 76.8372 29.6453 76.8372 33.272C76.8372 36.8987 76.0052 40.0987 74.3412 42.872C72.7199 45.6453 70.5012 47.8 67.6852 49.336C64.9119 50.8293 61.7972 51.576 58.3412 51.576ZM58.3412 43.768C59.9626 43.768 61.4772 43.384 62.8852 42.616C64.3359 41.8053 65.4879 40.6107 66.3412 39.032C67.1946 37.4533 67.6212 35.5333 67.6212 33.272C67.6212 29.9013 66.7252 27.32 64.9332 25.528C63.1839 23.6933 61.0292 22.776 58.4692 22.776C55.9092 22.776 53.7546 23.6933 52.0052 25.528C50.2986 27.32 49.4452 29.9013 49.4452 33.272C49.4452 36.6427 50.2772 39.2453 51.9412 41.08C53.6479 42.872 55.7812 43.768 58.3412 43.768ZM77.9057 33.272C77.9057 29.6027 78.6524 26.4027 80.1457 23.672C81.6391 20.8987 83.7084 18.7653 86.3537 17.272C88.9991 15.736 92.0284 14.968 95.4417 14.968C99.8364 14.968 103.463 16.0773 106.322 18.296C109.223 20.472 111.164 23.544 112.146 27.512H102.482C101.97 25.976 101.095 24.7813 99.8577 23.928C98.6631 23.032 97.1697 22.584 95.3777 22.584C92.8177 22.584 90.7911 23.5227 89.2977 25.4C87.8044 27.2347 87.0577 29.8587 87.0577 33.272C87.0577 36.6427 87.8044 39.2667 89.2977 41.144C90.7911 42.9787 92.8177 43.896 95.3777 43.896C99.0044 43.896 101.372 42.2747 102.482 39.032H112.146C111.164 42.872 109.223 45.9227 106.322 48.184C103.42 50.4453 99.7937 51.576 95.4417 51.576C92.0284 51.576 88.9991 50.8293 86.3537 49.336C83.7084 47.8 81.6391 45.6667 80.1457 42.936C78.6524 40.1627 77.9057 36.9413 77.9057 33.272Z" fill="#222222"/>
<path d="M124.47 43.896H139.19V51H115.51V6.328H124.47V43.896ZM146.229 11.32C144.65 11.32 143.327 10.8293 142.261 9.848C141.237 8.824 140.725 7.56533 140.725 6.072C140.725 4.57866 141.237 3.34133 142.261 2.36C143.327 1.336 144.65 0.823997 146.229 0.823997C147.807 0.823997 149.109 1.336 150.133 2.36C151.199 3.34133 151.733 4.57866 151.733 6.072C151.733 7.56533 151.199 8.824 150.133 9.848C149.109 10.8293 147.807 11.32 146.229 11.32ZM150.645 15.544V51H141.685V15.544H150.645ZM166.729 22.904V40.056C166.729 41.2507 167.007 42.1253 167.561 42.68C168.159 43.192 169.14 43.448 170.505 43.448H174.665V51H169.033C161.481 51 157.705 47.3307 157.705 39.992V22.904H153.481V15.544H157.705V6.776H166.729V15.544H174.665V22.904H166.729ZM210.87 32.504C210.87 33.784 210.784 34.936 210.614 35.96H184.694C184.907 38.52 185.803 40.5253 187.382 41.976C188.96 43.4267 190.902 44.152 193.206 44.152C196.534 44.152 198.902 42.7227 200.31 39.864H209.974C208.95 43.2773 206.987 46.0933 204.086 48.312C201.184 50.488 197.622 51.576 193.398 51.576C189.984 51.576 186.912 50.8293 184.182 49.336C181.494 47.8 179.382 45.6453 177.846 42.872C176.352 40.0987 175.606 36.8987 175.606 33.272C175.606 29.6027 176.352 26.3813 177.846 23.608C179.339 20.8347 181.43 18.7013 184.118 17.208C186.806 15.7147 189.899 14.968 193.398 14.968C196.768 14.968 199.776 15.6933 202.422 17.144C205.11 18.5947 207.179 20.664 208.63 23.352C210.123 25.9973 210.87 29.048 210.87 32.504ZM201.59 29.944C201.547 27.64 200.715 25.8053 199.094 24.44C197.472 23.032 195.488 22.328 193.142 22.328C190.923 22.328 189.046 23.0107 187.51 24.376C186.016 25.6987 185.099 27.5547 184.758 29.944H201.59Z" fill="url(#paint0_linear_103_442)"/>
<defs>
<linearGradient id="paint0_linear_103_442" x1="115" y1="33.5" x2="214.5" y2="35.5" gradientUnits="userSpaceOnUse">
<stop stop-color="#2555FF"/>
<stop offset="1" stop-color="#FC53FF"/>
</linearGradient>
</defs>
</svg>
